<?xml version="1.0" encoding="utf-8"?>
<!-- Generator: Adobe Illustrator 16.0.3, SVG Export Plug-In . SVG Version: 6.00 Build 0)  -->
<!DOCTYPE svg PUBLIC "-//W3C//DTD SVG 1.1//EN" "http://www.w3.org/Graphics/SVG/1.1/DTD/svg11.dtd">
<svg version="1.1" id="Layer_1" xmlns="http://www.w3.org/2000/svg" xmlns:xlink="http://www.w3.org/1999/xlink" x="0px" y="0px"
	 width="150px" height="150px" viewBox="0 0 150 150" enable-background="new 0 0 150 150" xml:space="preserve">
<g>
	<g>
		<path fill="#548C31" d="M58.601,87.468c0.042-0.002-7.076-23.005,11.779-41.029c0,0-10.237,22.479-1.796,40.414
			c59.813-6.394,59.001-58.704,58.986-59.433c0-0.191,0.013-0.328-0.09-0.423c-11.217-9.819-25.907-15.772-41.987-15.772
			C50.27,11.225,21.717,39.776,21.717,75c0,35.223,28.553,63.775,63.776,63.775c16.467,0,31.474-6.242,42.79-16.487
			c-6.123,2.582-12.852,4.01-19.914,4.01C84.338,126.298,64.171,109.772,58.601,87.468z"/>
	</g>
</g>
</svg>
