<?xml version="1.0" encoding="utf-8"?>
<!-- Generator: Adobe Illustrator 16.0.3, SVG Export Plug-In . SVG Version: 6.00 Build 0)  -->
<!DOCTYPE svg PUBLIC "-//W3C//DTD SVG 1.1//EN" "http://www.w3.org/Graphics/SVG/1.1/DTD/svg11.dtd">
<svg version="1.1" id="Layer_1" xmlns="http://www.w3.org/2000/svg" xmlns:xlink="http://www.w3.org/1999/xlink" x="0px" y="0px"
	 width="550px" height="250px" viewBox="0 0 550 250" enable-background="new 0 0 550 250" xml:space="preserve">
<g>
	<g>
		<g>
			<path fill="#3C3C3B" d="M290.237,96h-18.347c-0.333-2.376-1.017-4.49-2.053-6.341c-1.03-1.861-2.359-3.451-3.977-4.759
				c-1.619-1.311-3.482-2.317-5.588-3.02c-2.113-0.694-4.396-1.045-6.853-1.045c-4.442,0-8.306,1.101-11.602,3.29
				c-3.297,2.191-5.848,5.369-7.666,9.55c-1.815,4.169-2.722,9.232-2.722,15.181c0,6.119,0.913,11.251,2.742,15.417
				c1.83,4.162,4.39,7.302,7.688,9.422c3.294,2.122,7.104,3.183,11.433,3.183c2.433,0,4.685-0.321,6.763-0.964
				c2.084-0.641,3.934-1.582,5.555-2.83c1.618-1.232,2.965-2.755,4.039-4.541c1.077-1.788,1.825-3.826,2.24-6.121l18.347,0.092
				c-0.474,3.933-1.654,7.727-3.536,11.373c-1.886,3.644-4.417,6.896-7.585,9.757c-3.171,2.861-6.937,5.127-11.306,6.787
				c-4.372,1.665-9.305,2.492-14.809,2.492c-7.65,0-14.484-1.732-20.502-5.192c-6.018-3.467-10.767-8.479-14.243-15.04
				c-3.474-6.559-5.216-14.504-5.216-23.834c0-9.353,1.762-17.313,5.279-23.875c3.518-6.563,8.291-11.565,14.325-15.019
				c6.031-3.443,12.82-5.172,20.356-5.172c4.97,0,9.586,0.702,13.846,2.094c4.259,1.403,8.035,3.435,11.328,6.095
				c3.295,2.669,5.98,5.931,8.063,9.78C288.317,86.615,289.654,91.029,290.237,96z"/>
			<path fill="#3C3C3B" d="M320.773,65.966v85.782H302.93V65.966H320.773z"/>
			<path fill="#3C3C3B" d="M364.081,153.004c-6.507,0-12.124-1.387-16.855-4.165c-4.736-2.779-8.387-6.659-10.956-11.64
				c-2.564-4.993-3.856-10.778-3.856-17.37c0-6.644,1.292-12.458,3.856-17.447c2.569-4.979,6.22-8.86,10.956-11.644
				c4.731-2.776,10.349-4.164,16.855-4.164c6.506,0,12.129,1.388,16.859,4.164c4.733,2.783,8.385,6.665,10.954,11.644
				c2.569,4.989,3.852,10.804,3.852,17.447c0,6.592-1.282,12.377-3.852,17.37c-2.569,4.98-6.221,8.86-10.954,11.64
				C376.21,151.617,370.587,153.004,364.081,153.004z M364.164,139.179c2.963,0,5.431-0.842,7.414-2.529
				c1.982-1.69,3.486-3.999,4.503-6.932c1.017-2.931,1.529-6.27,1.529-10.014c0-3.737-0.513-7.078-1.529-10.007
				s-2.521-5.251-4.503-6.955c-1.983-1.703-4.451-2.556-7.414-2.556c-2.988,0-5.492,0.853-7.516,2.556
				c-2.025,1.704-3.549,4.026-4.567,6.955c-1.02,2.929-1.528,6.27-1.528,10.007c0,3.744,0.509,7.083,1.528,10.014
				c1.019,2.933,2.542,5.241,4.567,6.932C358.672,138.337,361.176,139.179,364.164,139.179z"/>
			<path fill="#3C3C3B" d="M465.239,87.416l-22.494,64.332H422.64l-22.493-64.332h18.85l13.361,46.025h0.669l13.318-46.025H465.239z
				"/>
			<path fill="#3C3C3B" d="M501.555,153.004c-6.615,0-12.306-1.345-17.07-4.035c-4.762-2.699-8.425-6.523-10.994-11.48
				c-2.569-4.956-3.854-10.83-3.854-17.616c0-6.614,1.284-12.422,3.854-17.428c2.569-4.997,6.192-8.89,10.871-11.684
				c4.678-2.788,10.169-4.187,16.481-4.187c4.243,0,8.203,0.681,11.874,2.035c3.675,1.353,6.885,3.381,9.638,6.095
				c2.745,2.704,4.893,6.1,6.426,10.197c1.534,4.09,2.304,8.874,2.304,14.349v4.896h-54.327V113.09h37.53
				c0-2.571-0.557-4.85-1.673-6.834c-1.119-1.978-2.66-3.536-4.628-4.665c-1.974-1.133-4.252-1.701-6.852-1.701
				c-2.707,0-5.102,0.629-7.182,1.869c-2.082,1.238-3.709,2.907-4.881,4.982c-1.17,2.082-1.775,4.39-1.802,6.936v10.509
				c0,3.183,0.594,5.932,1.779,8.253c1.19,2.32,2.871,4.106,5.048,5.362c2.178,1.257,4.761,1.885,7.753,1.885
				c1.979,0,3.796-0.28,5.444-0.84c1.645-0.553,3.055-1.393,4.228-2.517c1.172-1.109,2.067-2.484,2.682-4.1l16.505,1.088
				c-0.84,3.964-2.552,7.424-5.129,10.369c-2.587,2.946-5.906,5.231-9.972,6.87C511.543,152.19,506.861,153.004,501.555,153.004z"/>
		</g>
		<g>
			<g>
				<path fill="#4B5563" d="M233.607,181.567h-2.28c-0.17-0.849-0.472-1.637-0.912-2.359c-0.441-0.723-0.994-1.359-1.657-1.9
					c-0.663-0.538-1.416-0.961-2.253-1.262c-0.842-0.301-1.754-0.444-2.731-0.444c-1.566,0-2.998,0.413-4.284,1.222
					c-1.29,0.822-2.326,2.016-3.092,3.598c-0.775,1.576-1.164,3.515-1.164,5.801c0,2.303,0.389,4.244,1.164,5.818
					c0.766,1.578,1.802,2.774,3.092,3.591c1.286,0.81,2.718,1.215,4.284,1.215c0.978,0,1.89-0.145,2.731-0.445
					c0.837-0.302,1.59-0.724,2.253-1.255c0.663-0.54,1.216-1.173,1.657-1.902c0.44-0.725,0.742-1.516,0.912-2.362h2.28
					c-0.201,1.144-0.577,2.201-1.132,3.185c-0.554,0.982-1.261,1.835-2.111,2.577c-0.852,0.729-1.835,1.303-2.942,1.723
					c-1.107,0.411-2.322,0.618-3.648,0.618c-2.088,0-3.938-0.527-5.553-1.569c-1.62-1.054-2.884-2.529-3.802-4.437
					c-0.918-1.904-1.378-4.155-1.378-6.756c0-2.596,0.46-4.848,1.378-6.756c0.918-1.901,2.182-3.38,3.802-4.434
					c1.614-1.043,3.465-1.569,5.553-1.569c1.326,0,2.541,0.208,3.648,0.611c1.107,0.412,2.091,0.988,2.942,1.725
					c0.851,0.739,1.558,1.604,2.111,2.581C233.03,179.356,233.406,180.421,233.607,181.567z"/>
				<path fill="#4B5563" d="M272.966,186.222c0,2.587-0.459,4.835-1.384,6.752c-0.922,1.906-2.191,3.387-3.805,4.44
					c-1.607,1.042-3.465,1.569-5.556,1.569c-2.098,0-3.946-0.527-5.563-1.569c-1.612-1.054-2.876-2.534-3.793-4.44
					c-0.919-1.917-1.378-4.165-1.378-6.752c0-2.589,0.459-4.832,1.378-6.748c0.917-1.909,2.183-3.388,3.799-4.441
					c1.616-1.043,3.469-1.569,5.557-1.569c2.091,0,3.948,0.526,5.556,1.569c1.613,1.054,2.883,2.532,3.805,4.441
					C272.507,181.39,272.966,183.633,272.966,186.222z M270.758,186.222c0-2.225-0.374-4.125-1.115-5.718
					c-0.744-1.588-1.757-2.803-3.043-3.642c-1.287-0.844-2.745-1.261-4.378-1.261c-1.625,0-3.083,0.417-4.369,1.261
					c-1.283,0.839-2.298,2.054-3.046,3.63c-0.749,1.593-1.125,3.502-1.125,5.729c0,2.223,0.376,4.131,1.115,5.706
					c0.744,1.594,1.759,2.806,3.046,3.652c1.287,0.843,2.746,1.266,4.379,1.266s3.095-0.417,4.384-1.264
					c1.289-0.835,2.304-2.053,3.049-3.637C270.398,190.353,270.766,188.444,270.758,186.222z"/>
				<path fill="#4B5563" d="M292.106,173.808h2.62l9.007,21.63h0.223l9.01-21.63h2.62v24.83h-2.135v-20.043h-0.196l-8.378,20.043
					h-2.063l-8.381-20.043h-0.195v20.043h-2.131V173.808z"/>
				<path fill="#4B5563" d="M356.198,186.222c0,2.587-0.456,4.835-1.378,6.752c-0.926,1.906-2.188,3.387-3.804,4.44
					c-1.613,1.042-3.467,1.569-5.56,1.569c-2.094,0-3.951-0.527-5.561-1.569c-1.611-1.054-2.88-2.534-3.795-4.44
					c-0.922-1.917-1.378-4.165-1.378-6.752c0-2.589,0.456-4.832,1.378-6.748c0.915-1.909,2.184-3.388,3.801-4.441
					c1.621-1.043,3.467-1.569,5.555-1.569c2.093,0,3.946,0.526,5.56,1.569c1.615,1.054,2.878,2.532,3.804,4.441
					C355.742,181.39,356.198,183.633,356.198,186.222z M353.996,186.222c0-2.225-0.374-4.125-1.118-5.718
					c-0.743-1.588-1.755-2.803-3.045-3.642c-1.281-0.844-2.744-1.261-4.376-1.261c-1.626,0-3.078,0.417-4.364,1.261
					c-1.284,0.839-2.304,2.054-3.05,3.63c-0.753,1.593-1.123,3.502-1.123,5.729c0,2.223,0.37,4.131,1.117,5.706
					c0.742,1.594,1.757,2.806,3.042,3.652c1.284,0.843,2.745,1.266,4.378,1.266c1.632,0,3.095-0.417,4.384-1.264
					c1.289-0.835,2.308-2.053,3.05-3.637C353.637,190.353,354.002,188.444,353.996,186.222z"/>
				<path fill="#4B5563" d="M382.618,198.638h-7.277v-24.83h7.714c2.37,0,4.396,0.49,6.083,1.474
					c1.684,0.988,2.978,2.404,3.875,4.246c0.895,1.847,1.345,4.057,1.345,6.635c0,2.603-0.458,4.836-1.377,6.696
					c-0.917,1.865-2.25,3.295-4.004,4.286C387.228,198.144,385.106,198.638,382.618,198.638z M377.61,196.601h4.873
					c2.138,0,3.924-0.419,5.358-1.26c1.442-0.841,2.521-2.037,3.24-3.6c0.721-1.562,1.08-3.422,1.08-5.579
					c-0.007-2.142-0.362-3.981-1.06-5.534c-0.698-1.542-1.739-2.723-3.107-3.549c-1.37-0.825-3.062-1.235-5.074-1.235h-5.311
					V196.601z"/>
				<path fill="#4B5563" d="M415.766,173.808v24.83h-2.268v-24.83H415.766z"/>
				<path fill="#4B5563" d="M434.517,175.844v-2.036h18.009v2.036h-7.867v22.794h-2.27v-22.794H434.517z"/>
				<path fill="#4B5563" d="M468.953,173.808h2.618l7.361,11.781h0.218l7.359-11.781h2.618l-8.958,14.077v10.753h-2.256v-10.753
					L468.953,173.808z"/>
			</g>
		</g>
	</g>
	<g>
		<path fill="#548C31" d="M69.262,142.016c0.059,0-9.659-31.399,16.078-55.999c0,0-13.975,30.685-2.453,55.162
			c81.646-8.724,80.54-80.13,80.52-81.125c0-0.259,0.017-0.448-0.124-0.573c-15.311-13.409-35.365-21.537-57.314-21.537
			c-48.076,0-87.052,38.98-87.052,87.058s38.976,87.056,87.052,87.056c22.479,0,42.961-8.522,58.41-22.509
			c-8.357,3.527-17.544,5.475-27.183,5.475C104.395,195.022,76.864,172.465,69.262,142.016z"/>
	</g>
</g>
</svg>
